<?xml version="1.0" standalone="no"?>
<!DOCTYPE svg PUBLIC "-//W3C//DTD SVG 1.1//EN" "http://www.w3.org/Graphics/SVG/1.1/DTD/svg11.dtd" >
<svg xmlns="http://www.w3.org/2000/svg">
<metadata></metadata>
<defs>
<font id="supergroteska_rgregular" horiz-adv-x="1064" >
<font-face units-per-em="2048" ascent="1638" descent="-410" />
<missing-glyph horiz-adv-x="512" />
<glyph horiz-adv-x="2048" />
<glyph horiz-adv-x="2048" />
<glyph unicode="&#xd;" horiz-adv-x="2048" />
<glyph unicode=" "  horiz-adv-x="512" />
<glyph unicode="&#x09;" horiz-adv-x="512" />
<glyph unicode="&#xa0;" horiz-adv-x="512" />
<glyph unicode="!" horiz-adv-x="522" d="M184 0v174h154v-174h-154zM184 328v1147h154v-1147h-154z" />
<glyph unicode="&#x22;" horiz-adv-x="532" d="M82 1475h143l-10 -451h-123zM307 1475h144l-11 -451h-123z" />
<glyph unicode="#" horiz-adv-x="1433" d="M184 369v133h226v430h-226v133h226v328h143v-328h328v328h143v-328h225v-133h-225v-430h225v-133h-225v-369h-143v369h-328v-369h-143v369h-226zM553 502h328v430h-328v-430z" />
<glyph unicode="$" horiz-adv-x="1015" d="M72 221l110 74q51 -89 104 -136.5t128 -60.5v604q-54 29 -92.5 52.5t-81.5 60.5t-69.5 76.5t-44 94.5t-17.5 120q0 142 86.5 225.5t218.5 102.5v151h129v-153q161 -26 266 -160l-90 -92q-75 99 -176 120v-520q45 -24 71.5 -38.5t67.5 -40.5t65.5 -48t53.5 -55.5t44.5 -68 t26.5 -81t11 -98.5q0 -168 -87 -267t-253 -116v-151h-129v151q-212 31 -342 254zM240 1106q0 -87 45.5 -148t128.5 -110v452q-77 -14 -125.5 -65.5t-48.5 -128.5zM543 96q105 15 159 80t54 174q0 50 -16 92.5t-47.5 77t-66 61t-83.5 54.5v-539z" />
<glyph unicode="%" horiz-adv-x="1638" d="M164 1085q0 151 78 250t188 99t188 -99t78 -250t-78 -249.5t-188 -98.5t-188 98.5t-78 249.5zM287 1085q0 -105 40 -165t103 -60t103 60t40 165t-40 165.5t-103 60.5t-103 -60.5t-40 -165.5zM328 0l839 1393h144l-840 -1393h-143zM942 307q0 151 78 249.5t188 98.5 t188.5 -98.5t78.5 -249.5t-78.5 -249.5t-188.5 -98.5t-188 98.5t-78 249.5zM1065 307q0 -105 40 -165t103 -60t103.5 60t40.5 165t-40.5 165t-103.5 60t-103 -60t-40 -165z" />
<glyph unicode="&#x26;" horiz-adv-x="1392" d="M123 446q0 73 18 134t46 103t71.5 78.5t83.5 59.5t94 47q-84 104 -108.5 152.5t-24.5 116.5q0 129 84 205.5t217 76.5q132 0 215.5 -78t83.5 -204q0 -49 -13.5 -92t-35 -74.5t-55.5 -60.5t-66.5 -49.5t-77.5 -43.5l365 -440q26 68 29 142t-7.5 127.5t-31.5 119.5h145 q91 -262 -35 -512l211 -254h-168l-123 143q-78 -87 -185.5 -133.5t-231.5 -46.5q-74 0 -144.5 17.5t-135 56t-113.5 94t-78 137t-29 178.5zM250 446q0 -90 37.5 -162.5t97.5 -115t137.5 -61.5t155 -10.5t152 48t126.5 105.5l-428 508q-53 -25 -86.5 -43.5t-74 -47.5 t-63 -58.5t-38.5 -71.5t-16 -91zM440 1137q0 -10 2 -20.5t4.5 -19.5t8.5 -21t10.5 -20t14 -21.5t14.5 -20.5t17.5 -22t17.5 -21.5t20 -23.5t20 -23q100 45 149.5 91t49.5 122q0 66 -44.5 110.5t-119.5 44.5t-119.5 -44.5t-44.5 -110.5z" />
<glyph unicode="'" horiz-adv-x="307" d="M82 1475h143l-10 -451h-123z" />
<glyph unicode="(" horiz-adv-x="696" d="M123 686q0 273 105.5 513.5t283.5 418.5l102 -102q-162 -162 -255 -395t-93 -435t93 -434.5t255 -394.5l-102 -103q-178 178 -283.5 418.5t-105.5 513.5z" />
<glyph unicode=")" horiz-adv-x="696" d="M82 -143q162 162 255 394.5t93 434.5t-93 435t-255 395l102 102q178 -178 283.5 -418.5t105.5 -513.5t-105.5 -513.5t-283.5 -418.5z" />
<glyph unicode="*" horiz-adv-x="917" d="M143 1036l199 111l-199 110l62 107l194 -115l-2 226h123l-2 -226l195 115l61 -107l-199 -110l199 -111l-61 -106l-195 114l2 -225h-123l2 225l-194 -114z" />
<glyph unicode="+" horiz-adv-x="1126" d="M123 553v143h369v369h143v-369h369v-143h-369v-369h-143v369h-369z" />
<glyph unicode="," horiz-adv-x="522" d="M123 -225q61 98 61 245v154h154v-154q0 -91 -39.5 -166t-93.5 -120z" />
<glyph unicode="-" horiz-adv-x="604" d="M82 369v143h440v-143h-440z" />
<glyph unicode="." horiz-adv-x="522" d="M184 0v174h154v-174h-154z" />
<glyph unicode="/" horiz-adv-x="778" d="M0 -205l635 1802h143l-635 -1802h-143z" />
<glyph unicode="0" d="M82 410q0 198 124.5 319t325.5 121t326 -121t125 -319t-125 -319.5t-326 -121.5q-200 0 -325 121t-125 320zM225 410q0 -135 90.5 -221.5t216.5 -86.5q127 0 217.5 86.5t90.5 221.5t-90.5 221t-217.5 86t-217 -86t-90 -221z" />
<glyph unicode="1" horiz-adv-x="614" d="M61 410v204l246 205h144v-819h-144v635z" />
<glyph unicode="2" horiz-adv-x="921" d="M82 696q94 76 179 115t210 39q157 0 252.5 -67.5t95.5 -188.5q0 -71 -30.5 -123.5t-79.5 -82.5t-107.5 -52.5t-117.5 -39t-108 -35t-79.5 -48t-30.5 -70.5h553l-20 -143h-697v102q0 70 24.5 124.5t65 87.5t92 60t105.5 43t105.5 34t92 34.5t65 44.5t24.5 64q0 51 -51 87 t-154 36q-75 0 -159.5 -40.5t-147.5 -103.5z" />
<glyph unicode="3" horiz-adv-x="880" d="M-20 -184l102 88q132 -211 328 -211q116 0 201 65t85 181q0 66 -27.5 118.5t-72.5 84t-98 47.5t-109 16h-61v143h61q65 0 119 20.5t90.5 68.5t36.5 116q0 75 -64.5 119.5t-160.5 44.5q-160 0 -267 -144l-102 82q62 93 157 144t212 51q177 0 272.5 -84t95.5 -213 q0 -111 -54.5 -180t-129.5 -97q34 -6 73.5 -28t79.5 -60.5t66.5 -104t26.5 -144.5q0 -158 -118.5 -268.5t-311.5 -110.5q-146 0 -254.5 70.5t-175.5 185.5z" />
<glyph unicode="4" horiz-adv-x="1003" d="M-20 0l655 819h143v-686h205v-133h-205v-410h-143v410h-655zM246 133h389v481z" />
<glyph unicode="5" horiz-adv-x="962" d="M20 -215l103 102q49 -82 137.5 -138t190.5 -56q133 0 220 99t87 228q0 146 -86 232t-201 86q-102 0 -174 -21.5t-154 -70.5l41 573h607l-13 -133h-471l-20 -256q77 41 205 41q57 0 113 -15t110 -49.5t95 -85.5t66 -128.5t25 -172.5q0 -210 -129.5 -335t-320.5 -125 q-146 0 -255 62t-176 163z" />
<glyph unicode="6" d="M82 410q0 78 24 152.5t55 127.5t85 129l409 574h185l-430 -574q61 25 128 29t130 -12t120.5 -53t100.5 -89.5t68.5 -126t25.5 -157.5q0 -198 -125 -319.5t-326 -121.5q-200 0 -325 121t-125 320zM225 410q0 -135 90.5 -221.5t216.5 -86.5q127 0 217.5 86.5t90.5 221.5 t-90.5 221t-217.5 86q-126 0 -216.5 -87t-90.5 -220z" />
<glyph unicode="7" horiz-adv-x="911" d="M-20 686l30 133h881v-133l-502 -1137h-164l523 1137h-768z" />
<glyph unicode="8" d="M82 410q0 73 20 137.5t53.5 110.5t68.5 77.5t73 52.5q-154 103 -154 297q0 145 105.5 247t281.5 102q179 0 285.5 -102t106.5 -247q0 -97 -45.5 -174.5t-114.5 -122.5q221 -115 221 -358q0 -213 -124.5 -337t-326.5 -124q-200 0 -325 121t-125 320zM225 410 q0 -124 85 -216t222 -92t222.5 96t85.5 232q0 65 -33 129t-105.5 111t-169.5 47q-74 0 -134 -27.5t-97 -72.5t-56.5 -98.5t-19.5 -108.5zM287 1085q0 -109 65 -170t178 -61q110 0 179 61.5t69 169.5q0 84 -66.5 149.5t-181.5 65.5q-118 0 -180.5 -62.5t-62.5 -152.5z" />
<glyph unicode="9" d="M82 410q0 198 124.5 319t325.5 121t326 -121t125 -319q0 -112 -41.5 -205t-122.5 -205l-323 -451h-179l338 451q-61 -25 -128 -29t-130 12t-120.5 53.5t-100.5 89.5t-68.5 126t-25.5 158zM225 410q0 -135 90.5 -221.5t216.5 -86.5t217 87.5t91 220.5q0 135 -90.5 221 t-217.5 86t-217 -86t-90 -221z" />
<glyph unicode=":" horiz-adv-x="522" d="M184 0v174h154v-174h-154zM184 645v174h154v-174h-154z" />
<glyph unicode=";" horiz-adv-x="522" d="M123 -225q61 98 61 245v154h154v-154q0 -91 -39.5 -166t-93.5 -120zM184 645v174h154v-174h-154z" />
<glyph unicode="&#x3c;" horiz-adv-x="1126" d="M123 563v123l881 471v-164l-717 -368l717 -369v-164z" />
<glyph unicode="=" horiz-adv-x="1126" d="M123 389v143h881v-143h-881zM123 717v143h881v-143h-881z" />
<glyph unicode="&#x3e;" horiz-adv-x="1126" d="M123 92v164l717 369l-717 368v164l881 -471v-123z" />
<glyph unicode="?" horiz-adv-x="1003" d="M61 1116q15 184 132.5 292t298.5 108q122 0 217.5 -41.5t154 -131t58.5 -217.5q0 -62 -15.5 -115t-41 -91t-58.5 -75t-67.5 -65.5t-69 -64t-62.5 -70t-47 -83t-24.5 -103.5t6.5 -131h-154q-17 87 -10 160.5t30.5 127.5t59 102.5t75.5 85t80 75t72 73.5t52 80t20 94 q0 104 -78 175t-198 71q-113 0 -195 -81.5t-82 -203.5zM389 0v174h154v-174h-154z" />
<glyph unicode="@" horiz-adv-x="1753" d="M102 406q0 158 61.5 301t165 247t247 165t301.5 61q159 0 300.5 -50t246.5 -139.5t166 -222t61 -289.5q0 -222 -81 -341.5t-233 -119.5q-112 0 -225 119q-74 -83 -144 -110t-165 -27q-167 0 -277 113t-110 293t109.5 292.5t277.5 112.5q81 0 140 -27t110 -84v93h137v-480 q0 -87 50.5 -126.5t115.5 -39.5q67 0 111 93.5t44 220.5q0 174 -84 309.5t-227.5 208t-322.5 72.5q-176 0 -322 -86t-229.5 -234t-83.5 -325t83.5 -325t229.5 -234.5t322 -86.5q122 0 247.5 49t194.5 123l166 -43q-129 -129 -275 -193.5t-333 -64.5q-158 0 -301.5 61.5 t-247 165t-165 247t-61.5 301.5zM553 406q0 -122 72 -199.5t178 -77.5q114 0 186 67t72 210t-72 209.5t-186 66.5q-106 0 -178 -77t-72 -199z" />
<glyph unicode="A" horiz-adv-x="1187" d="M20 0l502 1475h144l501 -1475h-163l-144 451h-532l-144 -451h-164zM373 594h442l-221 696z" />
<glyph unicode="B" horiz-adv-x="1105" d="M184 0v1475h353q180 0 292.5 -102t112.5 -267q0 -111 -51.5 -201t-138.5 -131q47 -15 89 -42t80 -70t60.5 -108t22.5 -144q0 -189 -126 -299.5t-321 -110.5h-373zM338 143h215q136 0 221.5 76t85.5 191q0 134 -86 210t-221 76h-215v-553zM338 840h184q123 0 194.5 72.5 t71.5 193.5q0 79 -39.5 131.5t-97 73t-129.5 20.5h-184v-491z" />
<glyph unicode="C" horiz-adv-x="1409" d="M102 737q0 171 54 316t150 247t233.5 159t300.5 57q145 0 267.5 -61.5t211.5 -164.5l-111 -98q-47 68 -150 124t-218 56q-175 0 -309 -84t-204.5 -227.5t-70.5 -323.5q0 -132 47 -250.5t126.5 -202.5t186.5 -133t224 -49q85 0 158.5 26.5t125 65t113.5 101.5l100 -111 q-225 -225 -497 -225q-218 0 -386.5 98t-260 275t-91.5 405z" />
<glyph unicode="D" horiz-adv-x="1361" d="M184 0v1475h342q102 0 203 -26.5t197.5 -85t170 -142.5t118.5 -209t45 -275q0 -149 -45 -274t-118.5 -209t-170 -142.5t-197.5 -85t-203 -26.5h-342zM338 143h184q74 0 153 22t156.5 70t138 115.5t98.5 168t38 218.5q0 119 -38 219.5t-98.5 168t-138.5 115.5t-156.5 69.5 t-152.5 21.5h-184v-1188z" />
<glyph unicode="E" horiz-adv-x="1011" d="M184 0v1475h670l18 -144h-534v-502h461v-143h-461v-543h571l-18 -143h-707z" />
<glyph unicode="F" horiz-adv-x="970" d="M184 0v1475h707l18 -144h-571v-502h479l2 -143h-481v-686h-154z" />
<glyph unicode="G" horiz-adv-x="1617" d="M102 737q0 127 37 246t105 214.5t158.5 167.5t203.5 111.5t234 39.5q231 0 391.5 -87.5t253.5 -230.5l-111 -92q-99 130 -228 198t-306 68q-116 0 -224.5 -52t-187 -138.5t-125.5 -203.5t-47 -241t47.5 -241t126 -203.5t186.5 -138.5t224 -52q301 0 477 230v346h-399 l36 141h510v-563q-95 -130 -252.5 -213.5t-371.5 -83.5q-121 0 -234 39t-203.5 111t-158.5 168t-105 214.5t-37 245.5z" />
<glyph unicode="H" horiz-adv-x="1443" d="M184 0v1475h154v-656h768v656h154v-1475h-154v676h-768v-676h-154z" />
<glyph unicode="I" horiz-adv-x="522" d="M184 0v1475h154v-1475h-154z" />
<glyph unicode="J" horiz-adv-x="665" d="M0 82l102 102q30 -45 63.5 -63.5t80.5 -18.5q33 0 57.5 32.5t24.5 90.5v1250h153v-1250q0 -123 -63.5 -194.5t-171.5 -71.5q-154 0 -246 123z" />
<glyph unicode="K" horiz-adv-x="1116" d="M184 0v1475h154v-646h4l539 646h184l-635 -756l645 -719h-194l-539 604h-4v-604h-154z" />
<glyph unicode="L" horiz-adv-x="870" d="M184 0v1475h154v-1332h502l-23 -143h-633z" />
<glyph unicode="M" horiz-adv-x="1699" d="M184 0v1475h154l512 -973l512 973h154v-1475h-154v1167h-4l-508 -962l-508 962h-4v-1167h-154z" />
<glyph unicode="N" horiz-adv-x="1536" d="M184 0v1475h154l860 -1219v1219h154v-1475h-154l-860 1219v-1219h-154z" />
<glyph unicode="O" horiz-adv-x="1638" d="M102 737q0 224 89 401t253 277.5t375 100.5t375 -100.5t253 -277.5t89 -401t-89 -401t-252.5 -277t-375.5 -100t-375.5 100t-252.5 277t-89 401zM256 737q0 -173 71.5 -318t201.5 -231t290 -86t290 86t201.5 231t71.5 318t-71.5 318t-201.5 231t-290 86t-290 -86 t-201.5 -231t-71.5 -318z" />
<glyph unicode="P" horiz-adv-x="1024" d="M184 0v1475h318q91 0 170.5 -24.5t143 -72.5t100 -128.5t36.5 -184.5t-36.5 -184.5t-100 -128.5t-143 -72.5t-170.5 -24.5h-164v-655h-154zM338 799h164q61 0 112 13t94 42.5t67 83t24 127.5t-24 127.5t-67 83t-94 42.5t-112 13h-164v-532z" />
<glyph unicode="Q" horiz-adv-x="1638" d="M102 737q0 224 89 401t253 277.5t375 100.5t375 -100.5t253 -277.5t89 -401q0 -321 -176 -534l156 -203h-185l-76 100q-180 -141 -436 -141q-212 0 -375.5 100t-252.5 277t-89 401zM256 737q0 -173 71.5 -318t201.5 -231t290 -86q191 0 340 123l-217 287h184l136 -176 q120 175 120 401q0 173 -71.5 318t-201.5 231t-290 86t-290 -86t-201.5 -231t-71.5 -318z" />
<glyph unicode="R" horiz-adv-x="1085" d="M184 0v1475h318q91 0 170.5 -24.5t143 -72.5t100 -128.5t36.5 -184.5q0 -83 -24 -150.5t-63 -112t-92.5 -76.5t-107 -48.5t-112.5 -22.5l461 -655h-195l-440 655h-41v-655h-154zM338 799h164q61 0 112 13t94 42.5t67 83t24 127.5t-24 127.5t-67 83t-94 42.5t-112 13h-164 v-532z" />
<glyph unicode="S" horiz-adv-x="1095" d="M72 205l123 102q86 -108 176.5 -156.5t212.5 -48.5q124 0 200 72.5t76 194.5q0 79 -37.5 141t-97 104t-131.5 80t-144 79.5t-131.5 91.5t-97 126.5t-37.5 173.5q0 90 33 159t90.5 110t127.5 61.5t149 20.5q236 0 368 -164l-92 -113q-41 57 -114.5 95t-161.5 38 q-113 0 -179.5 -51t-66.5 -154q0 -74 37.5 -132t97 -97t131.5 -75t144 -78t131.5 -93.5t97 -134t37.5 -188.5q0 -176 -113 -293t-313 -117q-304 0 -516 246z" />
<glyph unicode="T" horiz-adv-x="890" d="M41 1321l20 154h768l21 -154h-328v-1321h-153v1321h-328z" />
<glyph unicode="U" horiz-adv-x="1404" d="M164 516v959h153v-959q0 -188 110 -301t275 -113t275 113t110 301v959h154v-959q0 -135 -42.5 -242.5t-116.5 -175t-171 -103.5t-209 -36t-209 36t-170.5 103.5t-116 175t-42.5 242.5z" />
<glyph unicode="V" horiz-adv-x="1105" d="M0 1475h164l389 -1229l389 1229h164l-479 -1475h-148z" />
<glyph unicode="W" horiz-adv-x="1781" d="M20 1475h164l326 -1219h4l305 1219h144l294 -1219h5l335 1219h164l-409 -1475h-154l-305 1188h-4l-305 -1188h-154z" />
<glyph unicode="X" horiz-adv-x="1146" d="M41 0l442 760l-411 715h174l327 -562l328 562h174l-411 -715l442 -760h-184l-349 604l-348 -604h-184z" />
<glyph unicode="Y" horiz-adv-x="1085" d="M0 1475h174l369 -779l368 779h174l-469 -959v-516h-151v516z" />
<glyph unicode="Z" horiz-adv-x="1056" d="M82 0v92l666 1239h-666l37 144h833v-93l-665 -1239h698l-37 -143h-866z" />
<glyph unicode="[" horiz-adv-x="696" d="M205 -195v1782l307 10l20 -143h-184v-1515h184l-20 -144z" />
<glyph unicode="\" horiz-adv-x="778" d="M0 1597h143l635 -1802h-143z" />
<glyph unicode="]" horiz-adv-x="696" d="M164 -61h184v1515h-184l20 143l308 -10v-1782l-308 -10z" />
<glyph unicode="^" horiz-adv-x="942" d="M0 655l414 820h110l418 -820h-154l-317 656l-317 -656h-154z" />
<glyph unicode="_" horiz-adv-x="880" d="M0 -164h881v-143h-881v143z" />
<glyph unicode="`" horiz-adv-x="471" d="M82 1270h184l123 -246h-123z" />
<glyph unicode="a" d="M82 410q0 193 114.5 316.5t284.5 123.5q180 0 293 -133h4v102h144v-819h-144v102h-4q-113 -133 -293 -133q-169 0 -284 124t-115 317zM225 410q0 -128 81 -218t186 -90q136 0 211 83.5t75 224.5q0 140 -75 223.5t-211 83.5q-107 0 -187 -86.5t-80 -220.5z" />
<glyph unicode="b" d="M143 0v1495h144v-778h4q113 133 293 133q170 0 284.5 -123.5t114.5 -316.5t-115 -317t-284 -124q-180 0 -293 133h-4v-102h-144zM287 410q0 -141 75 -224.5t211 -83.5q105 0 186 90t81 218q0 134 -80 220.5t-187 86.5q-136 0 -211 -83.5t-75 -223.5z" />
<glyph unicode="c" horiz-adv-x="888" d="M82 410q0 191 119.5 315.5t290.5 124.5q207 0 325 -162l-90 -84q-38 52 -99 82.5t-136 30.5q-121 0 -194 -88.5t-73 -218.5t73 -219t194 -89q74 0 127 31.5t108 97.5l100 -81q-52 -63 -92 -98.5t-101.5 -59t-141.5 -23.5q-111 0 -204.5 55.5t-149.5 157t-56 228.5z" />
<glyph unicode="d" d="M82 410q0 193 114.5 316.5t284.5 123.5q180 0 293 -133h4v778h144v-1495h-144v102h-4q-113 -133 -293 -133q-169 0 -284 124t-115 317zM225 410q0 -128 81 -218t186 -90q136 0 211 83.5t75 224.5q0 140 -75 223.5t-211 83.5q-107 0 -187 -86.5t-80 -220.5z" />
<glyph unicode="e" horiz-adv-x="983" d="M82 410q0 194 119.5 317t290.5 123q172 0 290.5 -124t118.5 -316v-37h-678q6 -114 83 -192.5t186 -78.5q82 0 141.5 29t109.5 92l121 -73q-82 -97 -170 -139t-202 -42q-111 0 -204.5 55.5t-149.5 157t-56 228.5zM236 502h514q-22 88 -87.5 151.5t-170.5 63.5 q-69 0 -126.5 -35t-88.5 -82.5t-41 -97.5z" />
<glyph unicode="f" horiz-adv-x="563" d="M51 686l21 133h102v369q0 143 66 225t200 82h82v-133h-41q-79 0 -121.5 -37t-42.5 -137v-369h205v-133h-205v-686h-143v686h-123z" />
<glyph unicode="g" d="M82 410q0 193 114.5 316.5t284.5 123.5q180 0 293 -133h4v102h144v-819q0 -410 -390 -410q-254 0 -389 127l82 119q58 -54 140.5 -83t166.5 -29q67 0 116.5 21.5t77 60.5t40 87t12.5 107v102h-4q-114 -135 -293 -135q-169 0 -284 125t-115 318zM225 410q0 -128 81 -218 t186 -90q136 0 211 83.5t75 224.5q0 140 -75 223.5t-211 83.5q-107 0 -187 -86.5t-80 -220.5z" />
<glyph unicode="h" horiz-adv-x="983" d="M143 0v1495h144v-778h4q85 133 266 133q139 0 216 -87t77 -241v-522h-143v508q0 209 -172 209q-112 0 -180 -68.5t-68 -202.5v-446h-144z" />
<glyph unicode="i" horiz-adv-x="430" d="M143 0v819h144v-819h-144zM143 1024v164h144v-164h-144z" />
<glyph unicode="j" horiz-adv-x="430" d="M20 -256q19 -2 35 -2q48 0 65 18q23 25 23 117v942h144v-962q0 -151 -63 -206q-50 -43 -147 -43q-27 0 -57 3v133zM143 1024v164h144v-164h-144z" />
<glyph unicode="k" horiz-adv-x="839" d="M143 0v1495h144v-983l299 307h176l-373 -391l410 -428h-187l-325 344v-344h-144z" />
<glyph unicode="l" horiz-adv-x="430" d="M143 0v1495h144v-1495h-144z" />
<glyph unicode="m" horiz-adv-x="1402" d="M143 0v819h144v-102h4q40 64 103 98.5t118 34.5q86 0 140.5 -34t84.5 -109q62 71 122 107t145 36q125 0 195.5 -83t70.5 -208v-559h-144v522q0 84 -42.5 134.5t-110.5 50.5q-74 0 -134.5 -61t-60.5 -144v-502h-143v522q0 85 -41.5 135t-112.5 50q-76 0 -135 -65t-59 -150 v-492h-144z" />
<glyph unicode="n" horiz-adv-x="983" d="M143 0v819h144v-102h4q85 133 268 133q139 0 215 -86.5t76 -241.5v-522h-143v508q0 209 -172 209q-112 0 -180 -68.5t-68 -202.5v-446h-144z" />
<glyph unicode="o" horiz-adv-x="1003" d="M82 410q0 202 119 321t301 119q114 0 208.5 -51.5t153 -153t58.5 -235.5t-58.5 -236t-153 -153.5t-208.5 -51.5t-208.5 51.5t-153 153.5t-58.5 236zM225 410q0 -133 79 -220.5t198 -87.5t197.5 87.5t78.5 220.5q0 131 -79 219t-197 88t-197.5 -88t-79.5 -219z" />
<glyph unicode="p" d="M143 -389v1208h144v-102h4q113 133 293 133q170 0 284.5 -123.5t114.5 -316.5t-115 -317t-284 -124q-180 0 -293 133h-4v-491h-144zM287 410q0 -141 75 -224.5t211 -83.5q107 0 187 87t80 221q0 128 -81 217.5t-186 89.5q-136 0 -211 -83.5t-75 -223.5z" />
<glyph unicode="q" d="M82 410q0 193 114.5 316.5t284.5 123.5q180 0 293 -133h4v102h144v-1208h-144v491h-4q-113 -133 -293 -133q-169 0 -284 124t-115 317zM225 410q0 -134 80 -221t187 -87q136 0 211 83.5t75 224.5q0 140 -75 223.5t-211 83.5q-105 0 -186 -89.5t-81 -217.5z" />
<glyph unicode="r" horiz-adv-x="573" d="M143 0v819h144v-102h4q39 68 87 100.5t134 32.5v-154q-19 3 -37 3q-68 0 -121 -44q-67 -56 -67 -143v-512h-144z" />
<glyph unicode="s" horiz-adv-x="788" d="M72 123l92 113q35 -52 99.5 -93t135.5 -41q75 0 109.5 30.5t34.5 92.5q0 33 -30.5 60t-76 45t-98.5 43.5t-98.5 53t-76 76.5t-30.5 111q0 117 75.5 176.5t190.5 59.5q77 0 150.5 -28t116.5 -85l-82 -102q-82 82 -185 82q-60 0 -91.5 -28t-31.5 -75q0 -29 22.5 -51.5 t59 -38.5t80 -32.5t87 -38.5t80 -50t59 -74t22.5 -104q0 -115 -70.5 -185.5t-216.5 -70.5q-212 0 -327 154z" />
<glyph unicode="t" horiz-adv-x="563" d="M51 686l21 133h102v297l143 41v-338h144v-133h-144v-512q-1 -56 41 -66q8 -2 16 -2q37 0 87 37v-143q-64 -31 -121 -31q-82 0 -124 46t-42 149v522h-123z" />
<glyph unicode="u" horiz-adv-x="983" d="M133 297v522h143v-508q0 -209 173 -209q112 0 179.5 68.5t67.5 202.5v446h144v-819h-144v102q-91 -133 -272 -133q-139 0 -215 86.5t-76 241.5z" />
<glyph unicode="v" horiz-adv-x="829" d="M20 819h154l244 -635h4l233 635h154l-317 -819h-150z" />
<glyph unicode="w" horiz-adv-x="1241" d="M20 819h150l176 -598h4l211 598h113l211 -598h4l174 598h158l-263 -819h-137l-203 580h-4l-202 -580h-129z" />
<glyph unicode="x" horiz-adv-x="768" d="M20 0l279 430l-248 389h164l170 -260l168 260h164l-248 -389l279 -430h-175l-188 297l-190 -297h-175z" />
<glyph unicode="y" horiz-adv-x="792" d="M0 819h156l256 -540l223 540h147l-501 -1208h-150l209 500z" />
<glyph unicode="z" horiz-adv-x="772" d="M31 0l440 686h-379l41 133h588l-438 -686h403l-41 -133h-614z" />
<glyph unicode="{" horiz-adv-x="675" d="M41 631v131q85 0 124.5 24t39.5 95v450q0 138 64 202t202 64h102l21 -133h-123q-69 0 -96 -28.5t-27 -104.5v-450q0 -78 -20.5 -116.5t-81.5 -68.5q61 -30 81.5 -68t20.5 -116v-451q0 -76 27 -104.5t96 -28.5h123l-21 -133h-102q-138 0 -202 64t-64 202v451 q0 71 -39.5 95t-124.5 24z" />
<glyph unicode="|" horiz-adv-x="778" d="M322 -205v1802h133v-1802h-133z" />
<glyph unicode="}" horiz-adv-x="675" d="M82 -72h123q69 0 96 28.5t27 104.5v451q0 78 20.5 116t81.5 68q-61 30 -81.5 68.5t-20.5 116.5v450q0 76 -27 104.5t-96 28.5h-123l20 133h103q138 0 202 -64t64 -202v-450q0 -71 39.5 -95t124.5 -24v-131q-85 0 -124.5 -24t-39.5 -95v-451q0 -138 -64 -202t-202 -64 h-103z" />
<glyph unicode="~" horiz-adv-x="1085" d="M123 512q0 132 53.5 189t151.5 57q48 0 113 -24t117.5 -53t109 -53t90.5 -24q82 0 82 113h123q0 -131 -53.5 -188.5t-151.5 -57.5q-48 0 -113 24t-117.5 53t-109 53t-90.5 24q-82 0 -82 -113h-123z" />
<glyph unicode="&#xa1;" horiz-adv-x="522" d="M184 -389v1147h154v-1147h-154zM184 911v174h154v-174h-154z" />
<glyph unicode="&#xa2;" horiz-adv-x="901" d="M82 410q0 173 98 288.5t250 137.5v168h123v-168q165 -16 266 -140l-82 -92q-63 85 -184 107v-602q104 17 184 116l103 -75q-66 -85 -130 -123t-157 -45v-166h-123v168q-151 22 -249.5 137t-98.5 289zM215 410q0 -110 59 -194t156 -107v602q-97 -23 -156 -107t-59 -194z " />
<glyph unicode="&#xa3;" horiz-adv-x="983" d="M123 0v129q90 85 127 241.5t37 417.5h-144l21 134h123v221q0 73 25 130.5t66 91.5t89 51.5t98 17.5q120 0 188 -32t148 -118l-82 -96q-59 66 -129.5 93t-127 16.5t-94.5 -52t-38 -102.5v-221h266l-20 -134h-246q0 -253 -33 -403t-110 -242h594l-41 -143h-717z" />
<glyph unicode="&#xa4;" horiz-adv-x="1337" d="M41 492l20 122h148q-4 36 -4 82q0 53 2 82h-166l20 123h164q49 244 206 388.5t368 144.5q283 0 430 -246l-123 -82q-38 76 -117 135t-190 59q-150 0 -266.5 -107t-161.5 -292h612l-20 -123h-611q-4 -54 -4 -82t4 -82h631l-20 -122h-590q42 -184 158.5 -292t267.5 -108 q112 0 182.5 52t124.5 143l123 -82q-29 -43 -53 -73.5t-63 -65.5t-80.5 -56.5t-102 -36t-131.5 -14.5q-208 0 -366 143.5t-208 389.5h-184z" />
<glyph unicode="&#xa5;" horiz-adv-x="1187" d="M82 1393h164l348 -738l348 738h164l-315 -645h274v-134h-340l-59 -122h399v-134h-399v-358h-144v358h-399v134h399l-59 122h-340v134h274z" />
<glyph unicode="&#xa6;" horiz-adv-x="634" d="M246 0v614h143v-614h-143zM246 799v594h143v-594h-143z" />
<glyph unicode="&#xa7;" horiz-adv-x="1044" d="M82 737q0 86 25 150.5t63.5 105t103.5 84.5q-90 86 -90 234q0 81 31 145.5t82 103t111 58.5t124 20q221 0 369 -184l-102 -102q-31 38 -51.5 58.5t-52.5 43t-71.5 32t-91.5 9.5q-75 0 -134.5 -49t-59.5 -135q0 -58 34.5 -107t89.5 -85.5t121.5 -72.5t133.5 -76.5 t122 -87.5t89.5 -116t34.5 -152q0 -117 -42 -189.5t-128 -133.5q108 -103 108 -250q0 -108 -54.5 -189t-137 -120t-177.5 -39q-144 0 -244.5 63.5t-185.5 182.5l123 102q17 -34 43 -67t63.5 -65.5t90 -52.5t110.5 -20q81 0 148.5 58.5t67.5 146.5q0 51 -28.5 95.5 t-75.5 76.5t-107 66t-122 63.5t-122 69.5t-107 83.5t-75.5 106t-28.5 135.5zM236 737q0 -46 25.5 -86t75.5 -75t100 -63t122.5 -66.5t120.5 -69.5q64 44 96.5 98t32.5 139q0 40 -19.5 76.5t-50.5 64t-77 57.5t-89.5 53.5t-99.5 56.5t-96 61q-70 -46 -105.5 -101.5 t-35.5 -144.5z" />
<glyph unicode="&#xa8;" horiz-adv-x="614" d="M82 1024v164h143v-164h-143zM389 1024v164h143v-164h-143z" />
<glyph unicode="&#xa9;" horiz-adv-x="1761" d="M102 737q0 211 104.5 390.5t284 284t390.5 104.5q127 0 245.5 -39.5t214.5 -111.5t168 -167.5t111 -214.5t39 -246q0 -158 -61.5 -302.5t-165.5 -248.5t-248.5 -165.5t-302.5 -61.5q-127 0 -246 39t-214.5 111t-167.5 168t-111.5 214.5t-39.5 245.5zM246 737 q0 -130 50 -247.5t135 -202.5t202.5 -135t247.5 -50t247.5 50t202.5 135t135 202.5t50 247.5t-50 247.5t-135 202.5t-202.5 135t-247.5 50t-247.5 -50t-202.5 -135t-135 -202.5t-50 -247.5zM430 737q0 209 128 345.5t323 136.5q117 0 199 -39.5t149 -114.5l-82 -102 q-58 72 -118.5 97t-147.5 25q-137 0 -222.5 -97.5t-85.5 -250.5q0 -159 84.5 -253.5t223.5 -94.5q153 0 245 123l103 -90q-81 -91 -155 -128.5t-193 -37.5q-195 0 -323 136t-128 345z" />
<glyph unicode="&#xaa;" horiz-adv-x="716" d="M61 1116q0 70 24 128.5t61 94t79 55t82 19.5q65 0 113 -20t92 -72v72h123v-553h-123v82q-44 -59 -91.5 -81t-113.5 -22q-40 0 -82 19.5t-79 55t-61 94t-24 128.5zM82 614v123h553v-123h-553zM184 1116q0 -79 44.5 -131.5t119.5 -52.5q66 0 115 49t49 135t-49 135t-115 49 q-75 0 -119.5 -52.5t-44.5 -131.5z" />
<glyph unicode="&#xab;" horiz-adv-x="798" d="M102 451l226 225l82 -82l-144 -143l144 -144l-82 -82zM348 451l225 225l82 -82l-143 -143l143 -144l-82 -82z" />
<glyph unicode="&#xac;" horiz-adv-x="1126" d="M123 553v143h881v-368h-123v225h-758z" />
<glyph unicode="&#xad;" horiz-adv-x="604" d="M82 369v143h440v-143h-440z" />
<glyph unicode="&#xae;" horiz-adv-x="1085" d="M82 1055q0 125 62 231t168 168t231 62t231 -62t168 -168t62 -231t-62 -231t-168 -168t-231 -62t-231 62t-168 168t-62 231zM184 1055q0 -149 105 -254t254 -105t253.5 105t104.5 254t-104.5 253.5t-253.5 104.5t-254 -104.5t-105 -253.5zM362 797v516h211q83 0 134 -43.5 t51 -114.5q0 -67 -40.5 -108t-88.5 -48l106 -202h-125l-92 198h-45v-198h-111zM473 1085h82q49 0 74.5 13.5t25.5 56.5q0 24 -7 38.5t-23 21t-30.5 8.5t-39.5 2h-82v-140z" />
<glyph unicode="&#xaf;" horiz-adv-x="860" d="M82 1024v123h696v-123h-696z" />
<glyph unicode="&#xb0;" horiz-adv-x="593" d="M82 1260q0 89 63 152t152 63t152 -63t63 -152t-63 -152.5t-152 -63.5t-152 63.5t-63 152.5zM184 1260q0 -46 33.5 -79.5t79.5 -33.5t79.5 33.5t33.5 79.5t-33.5 79t-79.5 33t-79.5 -33t-33.5 -79z" />
<glyph unicode="&#xb1;" horiz-adv-x="1126" d="M123 0v143h881v-143h-881zM123 655v144h369v368h143v-368h369v-144h-369v-368h-143v368h-369z" />
<glyph unicode="&#xb2;" horiz-adv-x="880" d="M164 553v102q0 71 23.5 128t61.5 94t84 67t92 54t84 47.5t61.5 54t23.5 67.5q0 69 -37 106.5t-106 37.5q-132 0 -164 -164l-123 20q16 114 92 190.5t195 76.5q124 0 195 -71t71 -196q0 -62 -23.5 -111.5t-61.5 -81t-84 -58t-92 -50t-84 -48t-61.5 -61t-23.5 -81.5h430 l-21 -123h-532z" />
<glyph unicode="&#xb3;" horiz-adv-x="880" d="M123 717l113 61q38 -76 85 -111.5t109 -35.5q70 0 117 46.5t47 121.5q0 73 -49.5 118.5t-114.5 45.5h-61v122h61q123 0 123 123q0 44 -38 75.5t-85 31.5q-58 0 -94 -31.5t-60 -95.5l-112 41q68 205 266 205q116 0 181 -59.5t65 -166.5q0 -46 -9.5 -79.5t-27.5 -54 t-32 -30.5t-34 -20q54 -18 99 -77.5t45 -147.5q0 -123 -82 -205t-205 -82q-104 0 -181.5 54.5t-125.5 150.5z" />
<glyph unicode="&#xb4;" horiz-adv-x="471" d="M82 1024l123 246h184l-184 -246h-123z" />
<glyph unicode="&#xb5;" horiz-adv-x="993" d="M143 -389v1208h144v-508q0 -209 172 -209q112 0 180 68.5t68 202.5v446h143v-819h-143v102q-45 -66 -108 -99.5t-128 -33.5q-54 0 -107.5 20.5t-76.5 51.5v-430h-144z" />
<glyph unicode="&#xb6;" horiz-adv-x="1167" d="M61 1147q0 150 106 239t263 89h604v-1475h-153v1341h-195v-1341h-154v819h-102q-157 0 -263 89t-106 239z" />
<glyph unicode="&#xb7;" horiz-adv-x="532" d="M184 369v163h164v-163h-164z" />
<glyph unicode="&#xb8;" horiz-adv-x="307" d="M20 -410q32 21 57 69.5t30 106.5t-25 111h143q41 -72 22 -139.5t-64.5 -117t-100.5 -71.5z" />
<glyph unicode="&#xb9;" horiz-adv-x="655" d="M164 1147v143l123 103h123v-840h-123v696z" />
<glyph unicode="&#xba;" horiz-adv-x="716" d="M61 1116q0 135 84.5 216t212.5 81t212.5 -81t84.5 -216t-84.5 -216t-212.5 -81t-212.5 81t-84.5 216zM82 614v123h553v-123h-553zM184 1116q0 -78 49 -131t125 -53t125 53t49 131t-49 131t-125 53t-125 -53t-49 -131z" />
<glyph unicode="&#xbb;" horiz-adv-x="798" d="M143 307l144 144l-144 143l82 82l226 -225l-226 -226zM389 307l143 144l-143 143l82 82l225 -225l-225 -226z" />
<glyph unicode="&#xbc;" horiz-adv-x="1617" d="M164 1147v143l123 103h123v-840h-123v696zM246 0l839 1393h144l-840 -1393h-143zM799 143l430 697h123v-574h102v-123h-102v-143h-123v143h-430zM1004 266h225v369z" />
<glyph unicode="&#xbd;" horiz-adv-x="1761" d="M164 1147v143l123 103h123v-840h-123v696zM246 0l839 1393h144l-840 -1393h-143zM1004 0v102q0 71 23.5 128t61.5 94t84 67t92 54t84 47.5t61.5 54t23.5 67.5q0 69 -37.5 106.5t-106.5 37.5q-132 0 -164 -164l-122 20q16 114 91.5 190.5t194.5 76.5q124 0 195 -71 t71 -196q0 -62 -23.5 -111.5t-61.5 -81t-84 -58t-92 -50t-84 -48t-61.5 -61t-23.5 -81.5h430l-20 -123h-532z" />
<glyph unicode="&#xbe;" horiz-adv-x="1863" d="M123 717l113 61q38 -76 85 -111.5t109 -35.5q70 0 117 46.5t47 121.5q0 73 -49.5 118.5t-114.5 45.5h-61v122h61q123 0 123 123q0 44 -38 75.5t-85 31.5q-58 0 -94 -31.5t-60 -95.5l-112 41q68 205 266 205q116 0 181 -59.5t65 -166.5q0 -46 -9.5 -79.5t-27.5 -54 t-32 -30.5t-34 -20q54 -18 99 -77.5t45 -147.5q0 -123 -82 -205t-205 -82q-104 0 -181.5 54.5t-125.5 150.5zM532 0l840 1393h144l-840 -1393h-144zM1085 143l431 697h122v-574h103v-123h-103v-143h-122v143h-431zM1290 266h226v369z" />
<glyph unicode="&#xbf;" horiz-adv-x="1003" d="M82 -20q0 62 15.5 115t41 91t58.5 75t67.5 65.5t69 64t62.5 70t47 83t24.5 103.5t-6.5 131h153q17 -87 10 -160.5t-30.5 -127.5t-59 -102.5t-75 -85t-79.5 -75t-72 -73.5t-52 -80t-20 -94q0 -104 78 -175t198 -71q113 0 194.5 81t81.5 203l154 -28q-15 -184 -132 -292 t-298 -108q-122 0 -217.5 41.5t-154 131t-58.5 217.5zM461 932v174h153v-174h-153z" />
<glyph unicode="&#xc0;" horiz-adv-x="1187" d="M20 0l502 1475h144l501 -1475h-163l-144 451h-532l-144 -451h-164zM348 1843h184l123 -246h-123zM373 594h442l-221 696z" />
<glyph unicode="&#xc1;" horiz-adv-x="1187" d="M20 0l502 1475h144l501 -1475h-163l-144 451h-532l-144 -451h-164zM373 594h442l-221 696zM532 1597l123 246h185l-185 -246h-123z" />
<glyph unicode="&#xc2;" horiz-adv-x="1187" d="M20 0l502 1475h144l501 -1475h-163l-144 451h-532l-144 -451h-164zM369 1597l163 246h123l164 -246h-143l-82 164l-82 -164h-143zM373 594h442l-221 696z" />
<glyph unicode="&#xc3;" horiz-adv-x="1187" d="M20 0l502 1475h144l501 -1475h-163l-144 451h-532l-144 -451h-164zM328 1597v41q0 90 29.5 127t93.5 37q44 0 97.5 -23t99 -46t69.5 -23t32.5 14t8.5 58h102v-41q0 -90 -29.5 -127t-93.5 -37q-44 0 -97.5 23t-99 46t-69.5 23t-32.5 -14t-8.5 -58h-102zM373 594h442 l-221 696z" />
<glyph unicode="&#xc4;" horiz-adv-x="1187" d="M20 0l502 1475h144l501 -1475h-163l-144 451h-532l-144 -451h-164zM369 1597v164h143v-164h-143zM373 594h442l-221 696zM676 1597v164h143v-164h-143z" />
<glyph unicode="&#xc5;" horiz-adv-x="1187" d="M20 0l502 1475h144l501 -1475h-163l-144 451h-532l-144 -451h-164zM373 594h442l-221 696zM430 1720q0 68 48 116t116 48t116 -48t48 -116t-48 -116t-116 -48t-116 48t-48 116zM522 1720q0 -29 21.5 -50t50.5 -21t50.5 21t21.5 50t-21.5 50.5t-50.5 21.5t-50.5 -21.5 t-21.5 -50.5z" />
<glyph unicode="&#xc6;" horiz-adv-x="1607" d="M0 0l696 1475h752l16 -144h-532v-502h461v-143h-461v-543h573l-20 -143h-707v451h-397l-207 -451h-174zM449 594h329v717h-4z" />
<glyph unicode="&#xc7;" horiz-adv-x="1409" d="M102 737q0 171 54 316t150 247t233.5 159t300.5 57q145 0 267.5 -61.5t211.5 -164.5l-111 -98q-47 68 -150 124t-218 56q-175 0 -309 -84t-204.5 -227.5t-70.5 -323.5q0 -132 47 -250.5t126.5 -202.5t186.5 -133t224 -49q85 0 158.5 26.5t125 65t113.5 101.5l100 -111 q-225 -225 -497 -225q-218 0 -386.5 98t-260 275t-91.5 405zM676 -410q32 21 56.5 70t29.5 106.5t-25 110.5h144q41 -72 22 -139.5t-65 -117t-101 -71.5z" />
<glyph unicode="&#xc8;" horiz-adv-x="1011" d="M184 0v1475h670l18 -144h-534v-502h461v-143h-461v-543h571l-18 -143h-707zM287 1843h184l123 -246h-123z" />
<glyph unicode="&#xc9;" horiz-adv-x="1011" d="M184 0v1475h670l18 -144h-534v-502h461v-143h-461v-543h571l-18 -143h-707zM410 1597l122 246h185l-185 -246h-122z" />
<glyph unicode="&#xca;" horiz-adv-x="1011" d="M184 0v1475h670l18 -144h-534v-502h461v-143h-461v-543h571l-18 -143h-707zM287 1597l164 246h122l164 -246h-143l-82 164l-82 -164h-143z" />
<glyph unicode="&#xcb;" horiz-adv-x="1011" d="M184 0v1475h670l18 -144h-534v-502h461v-143h-461v-543h571l-18 -143h-707zM287 1597v164h143v-164h-143zM594 1597v164h143v-164h-143z" />
<glyph unicode="&#xcc;" horiz-adv-x="522" d="M20 1843h185l123 -246h-123zM184 0v1475h154v-1475h-154z" />
<glyph unicode="&#xcd;" horiz-adv-x="522" d="M184 0v1475h154v-1475h-154zM195 1597l122 246h185l-185 -246h-122z" />
<glyph unicode="&#xce;" horiz-adv-x="522" d="M35 1597l164 246h123l163 -246h-143l-82 164l-82 -164h-143zM184 0v1475h154v-1475h-154z" />
<glyph unicode="&#xcf;" horiz-adv-x="522" d="M35 1597v164h143v-164h-143zM184 0v1475h154v-1475h-154zM342 1597v164h143v-164h-143z" />
<glyph unicode="&#xd0;" horiz-adv-x="1361" d="M41 676l20 143h123v656h342q102 0 203 -26.5t197.5 -85t170 -142.5t118.5 -209t45 -275q0 -149 -45 -274t-118.5 -209t-170 -142.5t-197.5 -85t-203 -26.5h-342v676h-143zM338 143h184q74 0 153 22t156.5 70t138 115.5t98.5 168t38 218.5q0 119 -38 219.5t-98.5 168 t-138.5 115.5t-156.5 69.5t-152.5 21.5h-184v-512h379l-21 -143h-358v-533z" />
<glyph unicode="&#xd1;" horiz-adv-x="1536" d="M184 0v1475h154l860 -1219v1219h154v-1475h-154l-860 1219v-1219h-154zM492 1597v41q0 90 29.5 127t92.5 37q44 0 97.5 -23t99.5 -46t70 -23t32.5 14t8.5 58h102v-41q0 -90 -29.5 -127t-93.5 -37q-44 0 -97.5 23t-99 46t-69.5 23t-32.5 -14t-8.5 -58h-102z" />
<glyph unicode="&#xd2;" horiz-adv-x="1638" d="M102 737q0 224 89 401t253 277.5t375 100.5t375 -100.5t253 -277.5t89 -401t-89 -401t-252.5 -277t-375.5 -100t-375.5 100t-252.5 277t-89 401zM256 737q0 -173 71.5 -318t201.5 -231t290 -86t290 86t201.5 231t71.5 318t-71.5 318t-201.5 231t-290 86t-290 -86 t-201.5 -231t-71.5 -318zM594 1843h184l123 -246h-123z" />
<glyph unicode="&#xd3;" horiz-adv-x="1638" d="M102 737q0 224 89 401t253 277.5t375 100.5t375 -100.5t253 -277.5t89 -401t-89 -401t-252.5 -277t-375.5 -100t-375.5 100t-252.5 277t-89 401zM256 737q0 -173 71.5 -318t201.5 -231t290 -86t290 86t201.5 231t71.5 318t-71.5 318t-201.5 231t-290 86t-290 -86 t-201.5 -231t-71.5 -318zM737 1597l123 246h184l-184 -246h-123z" />
<glyph unicode="&#xd4;" horiz-adv-x="1638" d="M102 737q0 224 89 401t253 277.5t375 100.5t375 -100.5t253 -277.5t89 -401t-89 -401t-252.5 -277t-375.5 -100t-375.5 100t-252.5 277t-89 401zM256 737q0 -173 71.5 -318t201.5 -231t290 -86t290 86t201.5 231t71.5 318t-71.5 318t-201.5 231t-290 86t-290 -86 t-201.5 -231t-71.5 -318zM594 1597l164 246h123l163 -246h-143l-82 164l-82 -164h-143z" />
<glyph unicode="&#xd5;" horiz-adv-x="1638" d="M102 737q0 224 89 401t253 277.5t375 100.5t375 -100.5t253 -277.5t89 -401t-89 -401t-252.5 -277t-375.5 -100t-375.5 100t-252.5 277t-89 401zM256 737q0 -173 71.5 -318t201.5 -231t290 -86t290 86t201.5 231t71.5 318t-71.5 318t-201.5 231t-290 86t-290 -86 t-201.5 -231t-71.5 -318zM553 1597v41q0 90 29.5 127t93.5 37q44 0 97.5 -23t99 -46t69.5 -23t32.5 14t8.5 58h102v-41q0 -90 -29.5 -127t-92.5 -37q-44 0 -97.5 23t-99.5 46t-70 23t-32.5 -14t-8.5 -58h-102z" />
<glyph unicode="&#xd6;" horiz-adv-x="1638" d="M102 737q0 224 89 401t253 277.5t375 100.5t375 -100.5t253 -277.5t89 -401t-89 -401t-252.5 -277t-375.5 -100t-375.5 100t-252.5 277t-89 401zM256 737q0 -173 71.5 -318t201.5 -231t290 -86t290 86t201.5 231t71.5 318t-71.5 318t-201.5 231t-290 86t-290 -86 t-201.5 -231t-71.5 -318zM594 1597v164h143v-164h-143zM901 1597v164h143v-164h-143z" />
<glyph unicode="&#xd7;" horiz-adv-x="1126" d="M115 276l348 349l-348 348l100 100l348 -348l348 348l101 -100l-348 -348l348 -349l-101 -100l-346 346l-350 -346z" />
<glyph unicode="&#xd8;" horiz-adv-x="1638" d="M102 41l168 184q-168 215 -168 512q0 164 54 308t148.5 247.5t228 163.5t286.5 60q271 0 471 -181l164 181l82 -82l-168 -183q168 -211 168 -514q0 -164 -54 -308t-148 -247t-228 -163t-287 -60q-276 0 -469 180l-166 -180zM256 737q0 -218 123 -393l805 877 q-158 151 -365 151q-115 0 -219.5 -51.5t-179.5 -137.5t-119.5 -203t-44.5 -243zM455 256q157 -154 364 -154q155 0 285 87t204 233t74 315q0 219 -122 396z" />
<glyph unicode="&#xd9;" horiz-adv-x="1404" d="M164 516v959h153v-959q0 -188 110 -301t275 -113t275 113t110 301v959h154v-959q0 -135 -42.5 -242.5t-116.5 -175t-171 -103.5t-209 -36t-209 36t-170.5 103.5t-116 175t-42.5 242.5zM481 1843h185l122 -246h-122z" />
<glyph unicode="&#xda;" horiz-adv-x="1404" d="M164 516v959h153v-959q0 -188 110 -301t275 -113t275 113t110 301v959h154v-959q0 -135 -42.5 -242.5t-116.5 -175t-171 -103.5t-209 -36t-209 36t-170.5 103.5t-116 175t-42.5 242.5zM625 1597l123 246h184l-184 -246h-123z" />
<glyph unicode="&#xdb;" horiz-adv-x="1404" d="M164 516v959h153v-959q0 -188 110 -301t275 -113t275 113t110 301v959h154v-959q0 -135 -42.5 -242.5t-116.5 -175t-171 -103.5t-209 -36t-209 36t-170.5 103.5t-116 175t-42.5 242.5zM477 1597l164 246h123l164 -246h-144l-82 164l-81 -164h-144z" />
<glyph unicode="&#xdc;" horiz-adv-x="1404" d="M164 516v959h153v-959q0 -188 110 -301t275 -113t275 113t110 301v959h154v-959q0 -135 -42.5 -242.5t-116.5 -175t-171 -103.5t-209 -36t-209 36t-170.5 103.5t-116 175t-42.5 242.5zM477 1597v164h144v-164h-144zM784 1597v164h144v-164h-144z" />
<glyph unicode="&#xdd;" horiz-adv-x="1085" d="M0 1475h174l369 -779l368 779h174l-469 -959v-516h-151v516zM451 1597l122 246h185l-185 -246h-122z" />
<glyph unicode="&#xde;" horiz-adv-x="1024" d="M184 0v1475h154v-328h164q91 0 170.5 -24.5t143 -72.5t100 -128.5t36.5 -184.5q0 -84 -24 -152.5t-66 -115.5t-99.5 -79.5t-123 -47t-137.5 -14.5h-164v-328h-154zM338 471h164q61 0 112 13t94 42.5t67 83t24 127.5t-24 127.5t-67 83t-94 43t-112 13.5h-164v-533z" />
<glyph unicode="&#xdf;" horiz-adv-x="993" d="M143 0v1143q0 166 92.5 259t235.5 93q147 0 247.5 -81t100.5 -226q0 -116 -40 -181.5t-124 -115.5q53 -27 91.5 -55.5t76.5 -76t58 -120.5t20 -168q0 -227 -103 -349t-286 -122h-123v133h123q100 0 173 89.5t73 248.5q0 147 -89.5 247.5t-197.5 100.5h-82v133h82 q98 0 151.5 67t53.5 169q0 83 -54 128.5t-151 45.5q-83 0 -133.5 -61t-50.5 -158v-1143h-144z" />
<glyph unicode="&#xe0;" d="M82 410q0 193 114.5 316.5t284.5 123.5q180 0 293 -133h4v102h144v-819h-144v102h-4q-113 -133 -293 -133q-169 0 -284 124t-115 317zM225 410q0 -128 81 -218t186 -90q136 0 211 83.5t75 224.5q0 140 -75 223.5t-211 83.5q-107 0 -187 -86.5t-80 -220.5zM266 1270h185 l122 -246h-122z" />
<glyph unicode="&#xe1;" d="M82 410q0 193 114.5 316.5t284.5 123.5q180 0 293 -133h4v102h144v-819h-144v102h-4q-113 -133 -293 -133q-169 0 -284 124t-115 317zM225 410q0 -128 81 -218t186 -90q136 0 211 83.5t75 224.5q0 140 -75 223.5t-211 83.5q-107 0 -187 -86.5t-80 -220.5zM410 1024 l122 246h185l-185 -246h-122z" />
<glyph unicode="&#xe2;" d="M82 410q0 193 114.5 316.5t284.5 123.5q180 0 293 -133h4v102h144v-819h-144v102h-4q-113 -133 -293 -133q-169 0 -284 124t-115 317zM225 410q0 -128 81 -218t186 -90q136 0 211 83.5t75 224.5q0 140 -75 223.5t-211 83.5q-107 0 -187 -86.5t-80 -220.5zM281 1024 l163 246h123l164 -246h-143l-82 164l-82 -164h-143z" />
<glyph unicode="&#xe3;" d="M82 410q0 193 114.5 316.5t284.5 123.5q180 0 293 -133h4v102h144v-819h-144v102h-4q-113 -133 -293 -133q-169 0 -284 124t-115 317zM225 410q0 -128 81 -218t186 -90q136 0 211 83.5t75 224.5q0 140 -75 223.5t-211 83.5q-107 0 -187 -86.5t-80 -220.5zM246 1024v41 q0 90 29.5 127t93.5 37q44 0 97.5 -23t99 -46t69.5 -23t32.5 13.5t8.5 57.5h102v-41q0 -90 -29.5 -126.5t-93.5 -36.5q-44 0 -97.5 23t-99 46t-69.5 23t-32.5 -14t-8.5 -58h-102z" />
<glyph unicode="&#xe4;" d="M82 410q0 193 114.5 316.5t284.5 123.5q180 0 293 -133h4v102h144v-819h-144v102h-4q-113 -133 -293 -133q-169 0 -284 124t-115 317zM225 410q0 -128 81 -218t186 -90q136 0 211 83.5t75 224.5q0 140 -75 223.5t-211 83.5q-107 0 -187 -86.5t-80 -220.5zM287 1024v164 h143v-164h-143zM594 1024v164h143v-164h-143z" />
<glyph unicode="&#xe5;" d="M82 410q0 193 114.5 316.5t284.5 123.5q180 0 293 -133h4v102h144v-819h-144v102h-4q-113 -133 -293 -133q-169 0 -284 124t-115 317zM225 410q0 -128 81 -218t186 -90q136 0 211 83.5t75 224.5q0 140 -75 223.5t-211 83.5q-107 0 -187 -86.5t-80 -220.5zM348 1147 q0 67 48 115.5t116 48.5t116 -48.5t48 -115.5t-48 -115.5t-116 -48.5t-116 48.5t-48 115.5zM440 1147q0 -29 21.5 -50.5t50.5 -21.5t50.5 21.5t21.5 50.5t-21.5 50.5t-50.5 21.5t-50.5 -21.5t-21.5 -50.5z" />
<glyph unicode="&#xe6;" horiz-adv-x="1679" d="M82 410q0 193 114.5 316.5t284.5 123.5q180 0 293 -133h4v102h144v-67h4q109 98 262 98q172 0 290.5 -124t118.5 -316v-37h-677q6 -114 82.5 -192.5t185.5 -78.5q82 0 142 29.5t110 91.5l121 -73q-82 -97 -170.5 -139t-202.5 -42q-153 0 -262 101h-4v-70h-144v102h-4 q-113 -133 -293 -133q-169 0 -284 124t-115 317zM225 410q0 -128 81 -218t186 -90q138 0 217 83.5t79 224.5t-79 224t-217 83q-107 0 -187 -86.5t-80 -220.5zM932 502h514q-22 88 -87.5 151.5t-170.5 63.5q-69 0 -126.5 -35t-88.5 -82.5t-41 -97.5z" />
<glyph unicode="&#xe7;" horiz-adv-x="888" d="M82 410q0 191 119.5 315.5t290.5 124.5q207 0 325 -162l-90 -84q-38 52 -99 82.5t-136 30.5q-121 0 -194 -88.5t-73 -218.5t73 -219t194 -89q74 0 127 31.5t108 97.5l100 -81q-52 -63 -92 -98.5t-101.5 -59t-141.5 -23.5q-111 0 -204.5 55.5t-149.5 157t-56 228.5z M348 -399q32 21 57 69.5t30 106t-25 110.5h143q41 -72 22 -139.5t-64.5 -116.5t-100.5 -71z" />
<glyph unicode="&#xe8;" horiz-adv-x="983" d="M82 410q0 194 119.5 317t290.5 123q172 0 290.5 -124t118.5 -316v-37h-678q6 -114 83 -192.5t186 -78.5q82 0 141.5 29t109.5 92l121 -73q-82 -97 -170 -139t-202 -42q-111 0 -204.5 55.5t-149.5 157t-56 228.5zM236 502h514q-22 88 -87.5 151.5t-170.5 63.5 q-69 0 -126.5 -35t-88.5 -82.5t-41 -97.5zM266 1270h185l122 -246h-122z" />
<glyph unicode="&#xe9;" horiz-adv-x="983" d="M82 410q0 194 119.5 317t290.5 123q172 0 290.5 -124t118.5 -316v-37h-678q6 -114 83 -192.5t186 -78.5q82 0 141.5 29t109.5 92l121 -73q-82 -97 -170 -139t-202 -42q-111 0 -204.5 55.5t-149.5 157t-56 228.5zM236 502h514q-22 88 -87.5 151.5t-170.5 63.5 q-69 0 -126.5 -35t-88.5 -82.5t-41 -97.5zM410 1024l122 246h185l-185 -246h-122z" />
<glyph unicode="&#xea;" horiz-adv-x="983" d="M82 410q0 194 119.5 317t290.5 123q172 0 290.5 -124t118.5 -316v-37h-678q6 -114 83 -192.5t186 -78.5q82 0 141.5 29t109.5 92l121 -73q-82 -97 -170 -139t-202 -42q-111 0 -204.5 55.5t-149.5 157t-56 228.5zM236 502h514q-22 88 -87.5 151.5t-170.5 63.5 q-69 0 -126.5 -35t-88.5 -82.5t-41 -97.5zM266 1024l164 246h123l164 -246h-144l-81 164l-82 -164h-144z" />
<glyph unicode="&#xeb;" horiz-adv-x="983" d="M82 410q0 194 119.5 317t290.5 123q172 0 290.5 -124t118.5 -316v-37h-678q6 -114 83 -192.5t186 -78.5q82 0 141.5 29t109.5 92l121 -73q-82 -97 -170 -139t-202 -42q-111 0 -204.5 55.5t-149.5 157t-56 228.5zM236 502h514q-22 88 -87.5 151.5t-170.5 63.5 q-69 0 -126.5 -35t-88.5 -82.5t-41 -97.5zM266 1024v164h144v-164h-144zM573 1024v164h144v-164h-144z" />
<glyph unicode="&#xec;" horiz-adv-x="430" d="M-20 1270h184l123 -246h-123zM143 0v819h144v-819h-144z" />
<glyph unicode="&#xed;" horiz-adv-x="430" d="M143 0v819h144v-819h-144zM143 1024l123 246h185l-185 -246h-123z" />
<glyph unicode="&#xee;" horiz-adv-x="430" d="M-10 1024l164 246h122l164 -246h-143l-82 164l-82 -164h-143zM143 0v819h144v-819h-144z" />
<glyph unicode="&#xef;" horiz-adv-x="430" d="M-10 1024v164h143v-164h-143zM143 0v819h144v-819h-144zM297 1024v164h143v-164h-143z" />
<glyph unicode="&#xf0;" d="M82 410q0 193 114.5 316.5t284.5 123.5q178 0 297 -133v409h-286l20 144h266v225h144v-225h102l-20 -144h-82v-1126h-144v102q-119 -133 -297 -133q-169 0 -284 124t-115 317zM225 410q0 -128 81 -218t186 -90q136 0 211 83.5t75 224.5q0 140 -75 223.5t-211 83.5 q-107 0 -187 -86.5t-80 -220.5z" />
<glyph unicode="&#xf1;" horiz-adv-x="983" d="M143 0v819h144v-102h4q85 133 268 133q139 0 215 -86.5t76 -241.5v-522h-143v508q0 209 -172 209q-112 0 -180 -68.5t-68 -202.5v-446h-144zM225 1024v41q0 90 29.5 127t93.5 37q44 0 97.5 -23t99 -46t69.5 -23t32.5 13.5t8.5 57.5h103v-41q0 -90 -29.5 -126.5 t-93.5 -36.5q-44 0 -97.5 23t-99 46t-69.5 23t-32.5 -14t-8.5 -58h-103z" />
<glyph unicode="&#xf2;" horiz-adv-x="1003" d="M82 410q0 202 119 321t301 119q114 0 208.5 -51.5t153 -153t58.5 -235.5t-58.5 -236t-153 -153.5t-208.5 -51.5t-208.5 51.5t-153 153.5t-58.5 236zM225 410q0 -133 79 -220.5t198 -87.5t197.5 87.5t78.5 220.5q0 131 -79 219t-197 88t-197.5 -88t-79.5 -219zM266 1270 h185l122 -246h-122z" />
<glyph unicode="&#xf3;" horiz-adv-x="1003" d="M82 410q0 202 119 321t301 119q114 0 208.5 -51.5t153 -153t58.5 -235.5t-58.5 -236t-153 -153.5t-208.5 -51.5t-208.5 51.5t-153 153.5t-58.5 236zM225 410q0 -133 79 -220.5t198 -87.5t197.5 87.5t78.5 220.5q0 131 -79 219t-197 88t-197.5 -88t-79.5 -219zM430 1024 l123 246h184l-184 -246h-123z" />
<glyph unicode="&#xf4;" horiz-adv-x="1003" d="M82 410q0 202 119 321t301 119q114 0 208.5 -51.5t153 -153t58.5 -235.5t-58.5 -236t-153 -153.5t-208.5 -51.5t-208.5 51.5t-153 153.5t-58.5 236zM225 410q0 -133 79 -220.5t198 -87.5t197.5 87.5t78.5 220.5q0 131 -79 219t-197 88t-197.5 -88t-79.5 -219zM272 1024 l164 246h123l164 -246h-143l-82 164l-82 -164h-144z" />
<glyph unicode="&#xf5;" horiz-adv-x="1003" d="M82 410q0 202 119 321t301 119q114 0 208.5 -51.5t153 -153t58.5 -235.5t-58.5 -236t-153 -153.5t-208.5 -51.5t-208.5 51.5t-153 153.5t-58.5 236zM225 410q0 -133 79 -220.5t198 -87.5t197.5 87.5t78.5 220.5q0 131 -79 219t-197 88t-197.5 -88t-79.5 -219zM231 1024 v41q0 90 29.5 127t93.5 37q44 0 97.5 -23t99.5 -46t70 -23t32.5 13.5t8.5 57.5h102v-41q0 -90 -29.5 -126.5t-93.5 -36.5q-44 0 -97.5 23t-99 46t-69.5 23t-32.5 -14t-8.5 -58h-103z" />
<glyph unicode="&#xf6;" horiz-adv-x="1003" d="M82 410q0 202 119 321t301 119q114 0 208.5 -51.5t153 -153t58.5 -235.5t-58.5 -236t-153 -153.5t-208.5 -51.5t-208.5 51.5t-153 153.5t-58.5 236zM225 410q0 -133 79 -220.5t198 -87.5t197.5 87.5t78.5 220.5q0 131 -79 219t-197 88t-197.5 -88t-79.5 -219zM272 1024 v164h144v-164h-144zM580 1024v164h143v-164h-143z" />
<glyph unicode="&#xf7;" horiz-adv-x="1126" d="M123 553v143h881v-143h-881zM492 164v164h143v-164h-143zM492 922v163h143v-163h-143z" />
<glyph unicode="&#xf8;" horiz-adv-x="1003" d="M82 41l86 90q-86 117 -86 279q0 202 119 321t301 119q151 0 264 -90l84 90l72 -72l-86 -90q86 -117 86 -278q0 -134 -58.5 -236t-153 -153.5t-208.5 -51.5q-151 0 -264 90l-84 -90zM225 410q0 -109 37 -179l414 435q-66 51 -174 51q-118 0 -197.5 -88t-79.5 -219z M328 154q64 -52 174 -52q119 0 197.5 87.5t78.5 220.5q0 108 -37 178z" />
<glyph unicode="&#xf9;" horiz-adv-x="983" d="M133 297v522h143v-508q0 -209 173 -209q112 0 179.5 68.5t67.5 202.5v446h144v-819h-144v102q-91 -133 -272 -133q-139 0 -215 86.5t-76 241.5zM266 1270h185l122 -246h-122z" />
<glyph unicode="&#xfa;" horiz-adv-x="983" d="M133 297v522h143v-508q0 -209 173 -209q112 0 179.5 68.5t67.5 202.5v446h144v-819h-144v102q-91 -133 -272 -133q-139 0 -215 86.5t-76 241.5zM389 1024l123 246h184l-184 -246h-123z" />
<glyph unicode="&#xfb;" horiz-adv-x="983" d="M133 297v522h143v-508q0 -209 173 -209q112 0 179.5 68.5t67.5 202.5v446h144v-819h-144v102q-91 -133 -272 -133q-139 0 -215 86.5t-76 241.5zM256 1024l164 246h123l164 -246h-144l-82 164l-82 -164h-143z" />
<glyph unicode="&#xfc;" horiz-adv-x="983" d="M133 297v522h143v-508q0 -209 173 -209q112 0 179.5 68.5t67.5 202.5v446h144v-819h-144v102q-91 -133 -272 -133q-139 0 -215 86.5t-76 241.5zM256 1024v164h143v-164h-143zM563 1024v164h144v-164h-144z" />
<glyph unicode="&#xfd;" horiz-adv-x="792" d="M0 819h156l256 -540l223 540h147l-501 -1208h-150l209 500zM307 1024l123 246h184l-184 -246h-123z" />
<glyph unicode="&#xfe;" d="M143 -389v1884h144v-778q119 133 297 133q170 0 284.5 -123.5t114.5 -316.5t-115 -317t-284 -124q-178 0 -297 133v-491h-144zM276 410q0 -141 79.5 -224.5t217.5 -83.5q105 0 186 90t81 218q0 134 -80 220.5t-187 86.5q-138 0 -217.5 -83t-79.5 -224z" />
<glyph unicode="&#xff;" horiz-adv-x="792" d="M0 819h156l256 -540l223 540h147l-501 -1208h-150l209 500zM184 1024v164h144v-164h-144zM492 1024v164h143v-164h-143z" />
<glyph unicode="&#x152;" horiz-adv-x="2199" d="M102 737q0 164 54 308t148.5 247.5t228 163.5t286.5 60q169 0 309.5 -71t239.5 -200h4v230h670l18 -144h-534v-502h461v-143h-461v-543h571l-18 -143h-707v229h-4q-99 -128 -239.5 -199t-309.5 -71q-204 0 -368.5 102t-256.5 280t-92 396zM256 737q0 -126 44.5 -243 t119.5 -203t179.5 -137.5t219.5 -51.5q155 0 285 87t204 233t74 315t-74 315t-204 233t-285 87q-115 0 -219.5 -51.5t-179.5 -137.5t-119.5 -203t-44.5 -243z" />
<glyph unicode="&#x153;" horiz-adv-x="1679" d="M82 410q0 202 119 321t301 119q107 0 199.5 -48t148.5 -136q55 87 144 135.5t194 48.5q172 0 290.5 -124t118.5 -316v-37h-677q6 -114 82.5 -192.5t185.5 -78.5q82 0 142 29.5t110 91.5l121 -73q-82 -97 -170.5 -139t-202.5 -42q-102 0 -191.5 49t-146.5 136 q-55 -88 -147 -136.5t-201 -48.5q-114 0 -208.5 51.5t-153 153.5t-58.5 236zM225 410q0 -133 79 -220.5t198 -87.5t197.5 87.5t78.5 220.5q0 131 -79 219t-197 88t-197.5 -88t-79.5 -219zM932 502h514q-22 88 -87.5 151.5t-170.5 63.5q-69 0 -126.5 -35t-88.5 -82.5 t-41 -97.5z" />
<glyph unicode="&#x178;" horiz-adv-x="1085" d="M0 1475h174l369 -779l368 779h174l-469 -959v-516h-151v516zM317 1597v164h144v-164h-144zM625 1597v164h143v-164h-143z" />
<glyph unicode="&#x2c6;" horiz-adv-x="614" d="M82 1024l164 246h123l163 -246h-143l-82 164l-82 -164h-143z" />
<glyph unicode="&#x2dc;" horiz-adv-x="696" d="M82 1024v41q0 90 29.5 127t93.5 37q44 0 97.5 -23t99 -46t69.5 -23t32.5 13.5t8.5 57.5h102v-41q0 -90 -29 -126.5t-93 -36.5q-44 0 -97.5 23t-99.5 46t-70 23t-32.5 -14t-8.5 -58h-102z" />
<glyph unicode="&#x2000;" horiz-adv-x="942" />
<glyph unicode="&#x2001;" horiz-adv-x="1884" />
<glyph unicode="&#x2002;" horiz-adv-x="942" />
<glyph unicode="&#x2003;" horiz-adv-x="1884" />
<glyph unicode="&#x2004;" horiz-adv-x="628" />
<glyph unicode="&#x2005;" horiz-adv-x="471" />
<glyph unicode="&#x2006;" horiz-adv-x="314" />
<glyph unicode="&#x2007;" horiz-adv-x="314" />
<glyph unicode="&#x2008;" horiz-adv-x="235" />
<glyph unicode="&#x2009;" horiz-adv-x="376" />
<glyph unicode="&#x200a;" horiz-adv-x="104" />
<glyph unicode="&#x2010;" horiz-adv-x="604" d="M82 369v143h440v-143h-440z" />
<glyph unicode="&#x2011;" horiz-adv-x="604" d="M82 369v143h440v-143h-440z" />
<glyph unicode="&#x2012;" horiz-adv-x="604" d="M82 369v143h440v-143h-440z" />
<glyph unicode="&#x2013;" horiz-adv-x="1249" d="M184 369v143h881v-143h-881z" />
<glyph unicode="&#x2014;" horiz-adv-x="1925" d="M82 369v143h1761v-143h-1761z" />
<glyph unicode="&#x2018;" horiz-adv-x="522" d="M184 1075v154q0 91 39.5 166.5t93.5 120.5l82 -41q-61 -98 -61 -246v-154h-154z" />
<glyph unicode="&#x2019;" horiz-adv-x="522" d="M123 1075q61 98 61 246v154h154v-154q0 -91 -39.5 -166.5t-93.5 -120.5z" />
<glyph unicode="&#x201a;" horiz-adv-x="522" d="M123 -225q61 98 61 245v154h154v-154q0 -91 -39.5 -166t-93.5 -120z" />
<glyph unicode="&#x201c;" horiz-adv-x="808" d="M184 1075v154q0 91 39.5 166.5t93.5 120.5l82 -41q-61 -98 -61 -246v-154h-154zM471 1075v154q0 91 39.5 166.5t93.5 120.5l82 -41q-61 -98 -61 -246v-154h-154z" />
<glyph unicode="&#x201d;" horiz-adv-x="808" d="M123 1075q61 98 61 246v154h154v-154q0 -91 -39.5 -166.5t-93.5 -120.5zM410 1075q61 98 61 246v154h154v-154q0 -91 -39.5 -166.5t-93.5 -120.5z" />
<glyph unicode="&#x201e;" horiz-adv-x="808" d="M123 -225q61 98 61 245v154h154v-154q0 -91 -39.5 -166t-93.5 -120zM410 -225q61 98 61 245v154h154v-154q0 -91 -39.5 -166t-93.5 -120z" />
<glyph unicode="&#x2022;" horiz-adv-x="778" d="M82 543q0 127 90 217t217 90t217 -90t90 -217t-90 -217t-217 -90t-217 90t-90 217z" />
<glyph unicode="&#x2026;" horiz-adv-x="1423" d="M184 0v174h154v-174h-154zM635 0v174h153v-174h-153zM1085 0v174h154v-174h-154z" />
<glyph unicode="&#x202f;" horiz-adv-x="376" />
<glyph unicode="&#x2039;" horiz-adv-x="552" d="M102 451l226 225l82 -82l-144 -143l144 -144l-82 -82z" />
<glyph unicode="&#x203a;" horiz-adv-x="552" d="M143 307l144 144l-144 143l82 82l226 -225l-226 -226z" />
<glyph unicode="&#x205f;" horiz-adv-x="471" />
<glyph unicode="&#x2122;" horiz-adv-x="1433" d="M20 1352v123h492v-123h-184v-615h-123v615h-185zM594 737v738h129l240 -410l239 410h129v-738h-123v512l-245 -409l-246 409v-512h-123z" />
<glyph unicode="&#x25fc;" horiz-adv-x="819" d="M0 0v819h819v-819h-819z" />
<glyph unicode="&#xfb01;" horiz-adv-x="952" d="M51 686l21 133h102v369q0 143 66 225t200 82h82v-133h-41q-79 0 -121.5 -37t-42.5 -137v-369h492v-819h-143v686h-349v-686h-143v686h-123zM666 1024v164h143v-164h-143z" />
<glyph unicode="&#xfb02;" horiz-adv-x="952" d="M51 686l21 133h102v369q0 143 66 225t200 82h369v-1495h-143v1362h-185q-79 0 -121.5 -37t-42.5 -137v-369h205v-133h-205v-686h-143v686h-123z" />
</font>
</defs>
</svg>
